# MagicaVoxel @ Ephtracy

# group
o 

# material
mtllib untitled.mtl
usemtl palette

# normals
vn -1 0 0
vn 1 0 0
vn 0 0 1
vn 0 0 -1
vn 0 -1 0
vn 0 1 0

# texcoords
vt 0.841797 0.5
vt 0.994141 0.5

# verts
v -0.5 0.1 -0.1
v -0.5 0.1 -0.2
v -0.5 0.3 -0.1
v -0.5 0.3 -0.2
v -0.4 0.1 0.2
v -0.4 0.1 0.1
v -0.4 0.1 -0.1
v -0.4 0.1 -0.2
v -0.4 0.1 -0.4
v -0.4 0.3 0.2
v -0.4 0.3 0.1
v -0.4 0.3 -0.1
v -0.4 0.3 -0.2
v -0.4 0.3 -0.4
v -0.2 0 0.2
v -0.2 0 0.1
v -0.2 0 -0.4
v -0.2 0.1 0.2
v -0.2 0.1 0.1
v -0.2 0.1 -0.4
v -0.2 0.3 0.2
v -0.2 0.3 0.1
v -0.2 0.3 -0.4
v -0.2 0.4 0.2
v -0.2 0.4 0.1
v -0.2 0.4 -0.4
v 0.1 0 0.2
v 0.1 0 0.1
v 0.1 0 -0.4
v 0.1 0.1 0.2
v 0.1 0.1 0.1
v 0.1 0.1 -0.4
v 0.1 0.3 0.2
v 0.1 0.3 0.1
v 0.1 0.3 -0.4
v 0.1 0.4 0.2
v 0.1 0.4 0.1
v 0.1 0.4 -0.4
v 0.3 0.1 0.2
v 0.3 0.1 0.1
v 0.3 0.1 -0.1
v 0.3 0.1 -0.2
v 0.3 0.1 -0.4
v 0.3 0.3 0.2
v 0.3 0.3 0.1
v 0.3 0.3 -0.1
v 0.3 0.3 -0.2
v 0.3 0.3 -0.4
v 0.4 0.1 -0.1
v 0.4 0.1 -0.2
v 0.4 0.2 -0.1
v 0.4 0.2 -0.2
v 0.5 0.2 -0.1
v 0.5 0.2 -0.2
v 0.5 0.3 -0.1
v 0.5 0.3 -0.2
v -0.4 0.1 0.2
v -0.4 0.3 0.2
v -0.2 0 0.2
v -0.2 0.1 0.2
v -0.2 0.3 0.2
v -0.2 0.4 0.2
v 0.1 0 0.2
v 0.1 0.1 0.2
v 0.1 0.3 0.2
v 0.1 0.4 0.2
v 0.3 0.1 0.2
v 0.3 0.3 0.2
v -0.5 0.1 -0.1
v -0.5 0.3 -0.1
v -0.4 0.1 -0.1
v -0.4 0.3 -0.1
v 0.3 0.1 -0.1
v 0.3 0.3 -0.1
v 0.4 0.1 -0.1
v 0.4 0.2 -0.1
v 0.5 0.2 -0.1
v 0.5 0.3 -0.1
v -0.5 0.1 -0.2
v -0.5 0.3 -0.2
v -0.4 0.1 -0.2
v -0.4 0.3 -0.2
v 0.3 0.1 -0.2
v 0.3 0.3 -0.2
v 0.4 0.1 -0.2
v 0.4 0.2 -0.2
v 0.5 0.2 -0.2
v 0.5 0.3 -0.2
v -0.4 0.1 -0.4
v -0.4 0.3 -0.4
v -0.2 0 -0.4
v -0.2 0.1 -0.4
v -0.2 0.3 -0.4
v -0.2 0.4 -0.4
v 0.1 0 -0.4
v 0.1 0.1 -0.4
v 0.1 0.3 -0.4
v 0.1 0.4 -0.4
v 0.3 0.1 -0.4
v 0.3 0.3 -0.4
v -0.2 0 0.2
v 0.1 0 0.2
v -0.2 0 0.1
v 0.1 0 0.1
v -0.2 0 -0.4
v 0.1 0 -0.4
v -0.4 0.1 0.2
v -0.2 0.1 0.2
v 0.1 0.1 0.2
v 0.3 0.1 0.2
v -0.4 0.1 0.1
v -0.2 0.1 0.1
v 0.1 0.1 0.1
v 0.3 0.1 0.1
v -0.5 0.1 -0.1
v -0.4 0.1 -0.1
v 0.3 0.1 -0.1
v 0.4 0.1 -0.1
v -0.5 0.1 -0.2
v -0.4 0.1 -0.2
v 0.3 0.1 -0.2
v 0.4 0.1 -0.2
v -0.4 0.1 -0.4
v -0.2 0.1 -0.4
v 0.1 0.1 -0.4
v 0.3 0.1 -0.4
v 0.4 0.2 -0.1
v 0.5 0.2 -0.1
v 0.4 0.2 -0.2
v 0.5 0.2 -0.2
v -0.4 0.3 0.2
v -0.2 0.3 0.2
v 0.1 0.3 0.2
v 0.3 0.3 0.2
v -0.4 0.3 0.1
v -0.2 0.3 0.1
v 0.1 0.3 0.1
v 0.3 0.3 0.1
v -0.5 0.3 -0.1
v -0.4 0.3 -0.1
v 0.3 0.3 -0.1
v 0.5 0.3 -0.1
v -0.5 0.3 -0.2
v -0.4 0.3 -0.2
v 0.3 0.3 -0.2
v 0.5 0.3 -0.2
v -0.4 0.3 -0.4
v -0.2 0.3 -0.4
v 0.1 0.3 -0.4
v 0.3 0.3 -0.4
v -0.2 0.4 0.2
v 0.1 0.4 0.2
v -0.2 0.4 0.1
v 0.1 0.4 0.1
v -0.2 0.4 -0.4
v 0.1 0.4 -0.4

# faces
f 3/2/1 2/2/1 1/2/1
f 4/2/1 2/2/1 3/2/1
f 10/1/1 6/1/1 5/1/1
f 11/2/1 7/2/1 6/2/1
f 11/1/1 6/1/1 10/1/1
f 12/2/1 7/2/1 11/2/1
f 13/2/1 9/2/1 8/2/1
f 14/2/1 9/2/1 13/2/1
f 18/1/1 16/1/1 15/1/1
f 19/2/1 17/2/1 16/2/1
f 19/1/1 16/1/1 18/1/1
f 20/2/1 17/2/1 19/2/1
f 24/1/1 22/1/1 21/1/1
f 25/2/1 23/2/1 22/2/1
f 25/1/1 22/1/1 24/1/1
f 26/2/1 23/2/1 25/2/1
f 27/1/2 28/1/2 30/1/2
f 28/2/2 29/2/2 31/2/2
f 30/1/2 28/1/2 31/1/2
f 31/2/2 29/2/2 32/2/2
f 33/1/2 34/1/2 36/1/2
f 34/2/2 35/2/2 37/2/2
f 36/1/2 34/1/2 37/1/2
f 37/2/2 35/2/2 38/2/2
f 39/1/2 40/1/2 44/1/2
f 40/2/2 41/2/2 45/2/2
f 44/1/2 40/1/2 45/1/2
f 45/2/2 41/2/2 46/2/2
f 42/2/2 43/2/2 47/2/2
f 47/2/2 43/2/2 48/2/2
f 49/2/2 50/2/2 51/2/2
f 51/2/2 50/2/2 52/2/2
f 53/2/2 54/2/2 55/2/2
f 55/2/2 54/2/2 56/2/2
f 60/1/3 58/1/3 57/1/3
f 61/1/3 58/1/3 60/1/3
f 63/1/3 60/1/3 59/1/3
f 63/1/3 62/1/3 61/1/3
f 63/1/3 61/1/3 60/1/3
f 64/1/3 62/1/3 63/1/3
f 65/1/3 62/1/3 64/1/3
f 66/1/3 62/1/3 65/1/3
f 67/1/3 65/1/3 64/1/3
f 68/1/3 65/1/3 67/1/3
f 71/2/3 70/2/3 69/2/3
f 72/2/3 70/2/3 71/2/3
f 75/2/3 74/2/3 73/2/3
f 76/2/3 74/2/3 75/2/3
f 77/2/3 74/2/3 76/2/3
f 78/2/3 74/2/3 77/2/3
f 79/2/4 80/2/4 81/2/4
f 81/2/4 80/2/4 82/2/4
f 83/2/4 84/2/4 85/2/4
f 85/2/4 84/2/4 86/2/4
f 86/2/4 84/2/4 87/2/4
f 87/2/4 84/2/4 88/2/4
f 89/2/4 90/2/4 92/2/4
f 92/2/4 90/2/4 93/2/4
f 91/2/4 92/2/4 95/2/4
f 93/2/4 94/2/4 95/2/4
f 92/2/4 93/2/4 95/2/4
f 95/2/4 94/2/4 96/2/4
f 96/2/4 94/2/4 97/2/4
f 97/2/4 94/2/4 98/2/4
f 96/2/4 97/2/4 99/2/4
f 99/2/4 97/2/4 100/2/4
f 103/1/5 102/1/5 101/1/5
f 104/1/5 102/1/5 103/1/5
f 105/2/5 104/2/5 103/2/5
f 106/2/5 104/2/5 105/2/5
f 111/1/5 108/1/5 107/1/5
f 112/1/5 108/1/5 111/1/5
f 113/1/5 110/1/5 109/1/5
f 114/1/5 110/1/5 113/1/5
f 116/2/5 112/2/5 111/2/5
f 117/2/5 114/2/5 113/2/5
f 119/2/5 116/2/5 115/2/5
f 120/2/5 112/2/5 116/2/5
f 120/2/5 116/2/5 119/2/5
f 121/2/5 117/2/5 113/2/5
f 121/2/5 118/2/5 117/2/5
f 122/2/5 118/2/5 121/2/5
f 123/2/5 112/2/5 120/2/5
f 124/2/5 112/2/5 123/2/5
f 125/2/5 121/2/5 113/2/5
f 126/2/5 121/2/5 125/2/5
f 129/2/5 128/2/5 127/2/5
f 130/2/5 128/2/5 129/2/5
f 131/1/6 132/1/6 135/1/6
f 135/1/6 132/1/6 136/1/6
f 133/1/6 134/1/6 137/1/6
f 137/1/6 134/1/6 138/1/6
f 135/2/6 136/2/6 140/2/6
f 137/2/6 138/2/6 141/2/6
f 139/2/6 140/2/6 143/2/6
f 140/2/6 136/2/6 144/2/6
f 143/2/6 140/2/6 144/2/6
f 137/2/6 141/2/6 145/2/6
f 141/2/6 142/2/6 145/2/6
f 145/2/6 142/2/6 146/2/6
f 144/2/6 136/2/6 147/2/6
f 147/2/6 136/2/6 148/2/6
f 137/2/6 145/2/6 149/2/6
f 149/2/6 145/2/6 150/2/6
f 151/1/6 152/1/6 153/1/6
f 153/1/6 152/1/6 154/1/6
f 153/2/6 154/2/6 155/2/6
f 155/2/6 154/2/6 156/2/6
